<svg width="142" height="58" viewBox="0 0 142 58" fill="none" xmlns="http://www.w3.org/2000/svg">
<path d="M4.83478 31.2459L7.61024 30.6688L9.62194 27.5949L7.9805 19.8216L13.673 18.638L15.8517 28.9553L18.6555 28.3724L20.6671 25.2984L16.3696 4.94648L15.5199 5.12313L19.6504 24.6836L18.5742 24.9074L16.4135 14.6749L6.44445 16.7475L8.60518 26.9801L7.52898 27.2038L3.39853 7.64332L2.54889 7.81997L0.537198 10.8939L4.83478 31.2459ZM14.4437 5.34688L13.5941 5.52353L11.5824 8.59747L12.6449 13.6289L6.92401 14.8184L5.32436 7.24291L4.47473 7.41956L6.24151 15.7865L16.2105 13.7138L14.4437 5.34688Z" fill="#272F1F"/>
<path d="M42.4326 22.603C43.887 20.7852 45.2378 18.3107 44.8834 15.1832L43.3263 1.43927L42.4633 1.53522L44.014 15.2217C44.4463 19.0379 42.4859 22.045 38.7463 22.4608C35.0067 22.8765 32.4156 20.3173 31.9898 16.5585L30.4391 2.87203L29.5761 2.96797L27.2797 5.83816L28.7849 19.123C29.2595 23.3121 32.4269 26.3303 36.7994 25.8442C39.0719 25.5915 40.7231 24.7397 42.4326 22.603ZM39.2499 19.9642C38.9693 20.315 38.5285 20.5384 37.8957 20.6087C37.1477 20.6919 36.3673 20.4881 35.6662 19.9559C34.805 19.2962 34.1572 18.2061 33.9296 16.1976L32.3952 2.65455L31.5322 2.7505L33.0731 16.3509C33.4535 19.708 35.4938 21.7764 38.6293 21.4278C41.7648 21.0793 43.2915 18.6142 42.9143 15.2859L41.3702 1.65675L40.5072 1.75269L38.2396 4.61968L39.6115 16.7281C39.8325 18.6792 39.6326 19.4859 39.2499 19.9642Z" fill="#272F1F"/>
<path d="M60.3845 19.9364C63.3086 19.8501 65.1101 18.0933 65.0387 15.7276C64.9786 13.737 64.0446 12.5518 60.535 10.5186C57.2613 8.62275 56.2334 7.20931 56.1795 5.42063C56.1116 3.17035 57.9622 1.12334 61.0311 1.03278C62.5365 0.98836 63.9963 1.34954 65.5498 1.93895L65.7843 1.06577C64.1421 0.421223 62.713 0.116887 61.0339 0.166437C59.181 0.221114 57.4895 0.819663 55.7204 2.69102C53.7548 4.7703 53.1307 6.17473 53.1803 7.81917C53.2508 10.156 54.4901 11.8519 57.7637 13.7477C60.8014 15.5061 61.3547 16.5582 61.3843 17.5391C61.3991 18.0295 61.2938 18.3791 61.0691 18.6168C60.7883 18.9138 60.4742 19.0675 59.6925 19.0905C58.4766 19.1264 56.9836 18.6218 55.4265 17.917L53.0678 20.4122L52.6021 23.2268C54.6557 24.0614 56.4339 24.4131 58.3447 24.3568C60.6318 24.2893 62.6876 23.2757 64.1197 21.7608C65.6922 20.0974 67.106 17.9766 67.0346 15.611C66.9475 12.726 65.1556 10.9597 61.5583 8.90021C58.875 7.36237 58.4768 6.65223 58.4612 6.13294C58.4568 5.98869 58.5376 5.78418 58.6499 5.66536C58.8745 5.42773 59.3036 5.24182 60.0273 5.22046C60.9827 5.19227 62.0363 5.53656 63.0354 5.99796L65.0844 3.80071L65.3197 2.95638C63.9671 2.30329 62.3345 1.97608 61.0317 2.01453C58.3972 2.09227 57.2572 3.68518 57.3077 5.35846C57.3512 6.80095 58.109 7.90473 61.0879 9.63598C64.7747 11.7795 66.0903 13.1267 66.166 15.6366C66.2505 18.435 64.0041 20.8113 60.3852 20.9181C58.8508 20.9634 57.4243 20.7456 55.7225 20.0451L55.8956 19.0582C57.5685 19.7596 58.7922 19.9834 60.3845 19.9364Z" fill="#272F1F"/>
<path d="M79.3275 0.719881L78.4597 0.680124L75.7349 3.1558L74.7672 23.8289L84.3705 24.2689L87.0044 21.8757L87.0422 21.0684L78.3935 20.6722L79.3275 0.719881ZM81.2944 0.809998L80.4266 0.770241L79.5385 19.7422L87.0881 20.0881L87.1259 19.2808L80.4441 18.9747L81.2944 0.809998Z" fill="#272F1F"/>
<path d="M100.363 17.019C99.8445 15.668 99.6442 14.1261 99.865 12.4945C100.132 10.5194 100.879 9.10336 101.921 8.3094C102.963 7.51545 104.382 7.17944 106.103 7.40825C107.395 7.57985 108.622 8.00527 109.589 8.62917L100.363 17.019ZM101.381 20.0683C102.665 21.3753 104.383 22.2739 106.449 22.5485C111.413 23.2082 115.695 19.8435 116.381 14.7769C116.745 12.0862 116.022 9.65895 114.6 7.86723L101.381 20.0683ZM98.4503 24.4576C99.9867 25.6234 101.671 26.3427 103.508 26.5867C106.807 27.0253 109.704 26.1281 112.505 23.9943C116.673 20.8185 118.048 17.9998 118.455 14.9942C118.85 12.0745 118.08 9.34959 116.556 7.22393L118.39 5.54445L117.796 4.97012L115.397 7.15727C117.083 9.15887 117.961 11.9563 117.558 14.9333C116.81 20.4578 111.79 24.3074 106.31 23.579C104.129 23.2892 102.152 22.3562 100.58 20.8069L98.478 22.7421L97.6986 22.0266L99.8659 20.0417C98.2123 18.0153 97.3597 15.2503 97.7588 12.302C98.5065 6.77742 103.526 2.92788 109.006 3.65626C111.302 3.96133 113.349 5.02021 114.683 6.39212L117.017 4.2546L116.423 3.68027L113.656 4.47823C112.45 3.67688 110.869 3.05876 109.176 2.83377C105.762 2.37996 102.785 3.44129 100.147 5.45099C96.8897 7.9321 94.9024 10.9608 94.4026 14.6533C94.0811 17.0292 94.552 19.1607 95.5038 20.9773L93.2729 23.2159L95.3321 25.2671L98.4503 24.4576ZM113.914 7.1059C112.623 5.85612 110.933 4.96131 108.867 4.68674C103.903 4.02701 99.6249 7.36314 98.9352 12.4583C98.5788 15.0918 99.2731 17.5152 100.696 19.307L113.914 7.1059ZM112.047 11.4035C112.783 12.8709 113.046 14.596 112.779 16.5711C112.504 18.6034 111.819 19.9985 110.776 20.7924C109.734 21.5864 108.459 21.9415 106.652 21.7012C105.045 21.4877 103.75 20.9077 102.61 20.0567L112.047 11.4035Z" fill="#272F1F"/>
<path d="M130.958 26.9182C133.808 27.5564 135.992 26.2988 136.517 23.9888C136.959 22.0451 136.353 20.6661 133.468 17.8295C130.778 15.1844 130.138 13.561 130.535 11.8144C131.034 9.61718 133.339 8.09049 136.33 8.7603C137.798 9.08889 139.119 9.79922 140.474 10.7539L140.92 9.96564C139.493 8.93569 138.187 8.28802 136.55 7.92152C134.744 7.5171 132.958 7.67951 130.776 9.05614C128.353 10.5857 127.396 11.7925 127.031 13.3982C126.513 15.68 127.286 17.6293 129.977 20.2745C132.474 22.7282 132.745 23.8843 132.527 24.842C132.418 25.3209 132.229 25.6337 131.952 25.8085C131.605 26.027 131.263 26.0984 130.501 25.9278C129.316 25.6624 127.998 24.8049 126.669 23.7375L123.76 25.573L122.603 28.1855C124.38 29.5011 126.012 30.2809 127.875 30.698C130.104 31.1972 132.347 30.7225 134.113 29.6081C136.052 28.3844 137.952 26.6785 138.477 24.3685C139.117 21.5515 137.827 19.3976 134.865 16.514C132.655 14.3614 132.448 13.575 132.563 13.0679C132.595 12.9271 132.725 12.7488 132.863 12.6614C133.14 12.4866 133.602 12.4124 134.308 12.5704C135.239 12.7789 136.172 13.3726 137.022 14.0663L139.556 12.443L139.996 11.683C138.851 10.7162 137.354 9.99613 136.084 9.71177C133.516 9.13674 132.013 10.3989 131.642 12.0327C131.322 13.4412 131.778 14.6978 134.225 17.1108C137.253 20.0979 138.188 21.7281 137.631 24.1789C137.01 26.9114 134.24 28.6595 130.712 27.8697C129.216 27.5348 127.891 26.9716 126.421 25.8727L126.836 24.9591C128.278 26.0517 129.406 26.5707 130.958 26.9182Z" fill="#272F1F"/>
<path d="M8.15389 43.7438V45.6677H7.78688V39.2803H8.97484C10.298 39.2803 11.4473 40.1269 11.4473 41.4832C11.4473 42.9838 10.0855 43.7438 8.85894 43.7438H8.15389ZM11.2542 42.9646C11.399 42.8011 11.7564 42.2528 11.7564 41.464C11.7564 39.9826 10.5395 39.011 8.9845 39.011H7.49714L6.6279 39.8767V46.8028H7.5744L8.44364 45.937V44.8404C9.59296 44.6865 10.2787 44.0805 11.2542 42.9646ZM8.15389 39.6074V43.4263H8.85894C10.1242 43.4263 11.0803 42.7049 11.0803 41.4736C11.0803 40.4251 10.2111 39.6074 8.9845 39.6074H8.15389ZM8.42432 43.1666V40.6463H8.69475C9.168 40.6463 9.5157 40.8098 9.74749 41.0599C9.96963 41.3004 10.0855 41.6371 10.0855 42.0219C10.0855 42.349 9.9986 42.6664 9.82476 42.8492C9.62194 43.0608 9.40946 43.1666 8.88791 43.1666H8.42432Z" fill="#272F1F"/>
<path d="M16.817 39.011H16.5273V45.6677H16.1603V39.011H15.8705L15.0013 39.8767V46.8028H15.9478L16.817 45.937V39.011Z" fill="#272F1F"/>
<path d="M25.3258 45.937V45.6677H21.3177L21.2984 45.6388L24.5339 39.6074H21.4143V39.2803H25.0651L25.0844 39.3092L21.8489 45.3406H25.3258V45.0713H22.3125L25.5094 39.0591L25.4804 39.011H21.2211L20.3519 39.8767V40.7136H23.1817L20.0525 46.5719L20.1974 46.7739H24.4856L25.3258 45.937Z" fill="#272F1F"/>
<path d="M33.3036 45.937V45.6677H29.2955L29.2762 45.6388L32.5117 39.6074H29.3921V39.2803H33.0429L33.0622 39.3092L29.8267 45.3406H33.3036V45.0713H30.2903L33.4871 39.0591L33.4582 39.011H29.1989L28.3297 39.8767V40.7136H31.1595L28.0303 46.5719L28.1751 46.7739H32.4634L33.3036 45.937Z" fill="#272F1F"/>
<path d="M39.9292 40.1461L38.3646 44.042H41.4166L39.9292 40.1461ZM40.0645 43.7726H38.7606L39.4367 42.1085L40.0645 43.7726ZM38.1618 45.408H40.6729L41.1945 46.8028H41.9575L42.8267 45.937L40.0645 38.8571H39.794L38.6447 40.0114L35.9114 46.8028H37.0897L37.959 45.937L38.1618 45.408ZM42.4114 45.6677H42.0251L41.5422 44.369H38.2391L37.7465 45.6677H37.3698L39.9099 39.2515H39.9486L42.4114 45.6677Z" fill="#272F1F"/>
<path d="M54.0543 47.0358C55.3099 47.0358 56.0728 46.6126 57.058 45.6314C57.7534 44.9388 58.2459 44.0057 58.3135 42.8225H54.7593L53.9674 43.6113V44.5155H56.7876C56.6137 44.7849 56.0052 45.2851 54.9235 45.2851C53.4458 45.2851 52.2965 44.1692 52.2965 42.6108C52.2965 41.9182 52.4897 41.4373 52.7698 41.1583C53.0498 40.8793 53.4458 40.7062 54.0736 40.7062C54.798 40.7062 55.5706 40.9659 56.2177 41.5046L57.1546 40.6388L57.2608 40.3503C56.7006 39.9559 55.7831 39.5711 54.9235 39.5711C53.3106 39.5711 51.9874 40.7639 51.9874 42.582C51.9874 44.3424 53.2913 45.5737 54.9235 45.5737C56.6427 45.5737 57.3864 44.4578 57.6182 43.4189H54.9525V43.0918H58.0141C57.85 44.4578 56.8552 45.92 54.9235 45.92C53.0305 45.92 51.5915 44.4674 51.5915 42.582C51.5915 40.5811 53.214 39.2248 54.9235 39.2248C55.9183 39.2248 56.8069 39.6192 57.367 40.0328L57.4636 39.7346C56.8938 39.3594 56.0246 38.9458 54.9428 38.9458C53.7935 38.9458 52.8567 39.4268 52.0744 40.206C51.1085 41.1679 50.587 42.2645 50.587 43.4958C50.587 45.5929 52.3158 47.0358 54.0543 47.0358Z" fill="#272F1F"/>
<path d="M62.7178 39.3787H65.5766V39.1094H62.4281L61.5588 39.9751V46.8723H64.7557L65.596 46.0354V45.7661H62.7178V39.3787ZM65.596 45.1697H63.3746V43.3901H64.6881L65.5284 42.5532V42.2838H63.0848V45.439H65.596V45.1697ZM65.5284 41.6874H63.3746V40.812H64.7364L65.5766 39.9751V39.7058H63.0848V41.9568H65.5284V41.6874Z" fill="#272F1F"/>
<path d="M70.3187 39.1094H70.029L69.1597 39.9751V46.8723H72.3662L73.2065 46.0354V45.7661H70.3187V39.1094ZM70.9755 39.1094H70.6857V45.439H73.2065V45.1697H70.9755V39.1094Z" fill="#272F1F"/>
<path d="M79.7743 40.2445L78.2097 44.1404H81.2617L79.7743 40.2445ZM79.9095 43.871H78.6057L79.2817 42.2068L79.9095 43.871ZM78.0069 45.5064H80.518L81.0395 46.9012H81.8025L82.6718 46.0354L79.9095 38.9554H79.6391L78.4898 40.1098L75.7565 46.9012H76.9348L77.804 46.0354L78.0069 45.5064ZM82.2565 45.7661H81.8701L81.3872 44.4674H78.0841L77.5916 45.7661H77.2149L79.755 39.3498H79.7936L82.2565 45.7661Z" fill="#272F1F"/>
<path d="M87.491 39.7058H85.7332V39.3787H89.8089V39.1094H85.54L84.6708 39.9751V40.812H86.332V46.9012H87.2785L88.1477 46.0354V40.812H88.9687L89.8089 39.9751V39.7058H87.858V45.7661H87.491V39.7058Z" fill="#272F1F"/>
<path d="M98.3467 43.4189C98.3467 44.0249 98.1825 44.4963 97.8735 44.8041C97.5644 45.1119 97.1587 45.2851 96.5503 45.2851C94.9567 45.2851 93.8943 44.1019 93.8943 42.5435C93.8943 41.8798 94.0778 41.3795 94.3868 41.0717C94.6959 40.7639 95.1595 40.5907 95.7969 40.5907C97.265 40.5907 98.3467 41.7066 98.3467 43.4189ZM93.1892 42.5724C93.1892 40.7158 94.6766 39.2248 96.5213 39.2248C98.395 39.2248 99.8534 40.6869 99.8534 42.5724C99.8534 44.4289 98.366 45.92 96.5213 45.92C94.6476 45.92 93.1892 44.4578 93.1892 42.5724ZM93.5852 42.5724C93.5852 44.2847 94.8504 45.5737 96.5213 45.5737C98.1922 45.5737 99.4574 44.275 99.4574 42.5724C99.4574 40.8601 98.1922 39.5711 96.5213 39.5711C94.8504 39.5711 93.5852 40.8601 93.5852 42.5724ZM100.153 42.5531C100.153 40.533 98.5495 38.9458 96.5406 38.9458C95.3913 38.9458 94.4545 39.4268 93.6721 40.206C92.7063 41.1679 92.1848 42.2549 92.1848 43.4958C92.1848 45.5929 93.9426 47.0358 95.7293 47.0358C96.84 47.0358 97.7576 46.6126 98.5882 45.7853C99.8244 44.554 100.153 43.5632 100.153 42.5531Z" fill="#272F1F"/>
<path d="M109.669 44.5827V40.2732H109.813C110.238 40.2732 110.75 40.4848 111.079 40.8118C111.504 41.2447 111.716 41.9181 111.716 42.6492C111.716 43.3225 111.533 43.8516 111.253 44.1306C110.924 44.4577 110.422 44.5827 109.813 44.5827H109.669ZM108.732 38.5224L107.862 39.3882V46.3142H108.925C111.059 46.3142 112.421 44.7462 113.039 43.6304C113.261 43.2264 113.464 42.6203 113.464 41.9662C113.464 39.9557 112.025 38.5224 109.852 38.5224H108.732ZM109.021 45.1791V38.7917H109.852C111.813 38.7917 113.165 40.1289 113.165 41.9662C113.165 43.7843 111.784 45.1791 109.794 45.1791H109.021ZM109.794 44.8521C111.61 44.8521 112.788 43.64 112.788 41.9662C112.788 40.2539 111.581 39.1188 109.833 39.1188H109.388V44.8521H109.794Z" fill="#272F1F"/>
<path d="M117.936 38.7917H120.795V38.5224H117.646L116.777 39.3882V46.2854H119.974L120.814 45.4485V45.1791H117.936V38.7917ZM120.814 44.5827H118.593V42.8031H119.906L120.747 41.9662V41.6968H118.303V44.8521H120.814V44.5827ZM120.747 41.1004H118.593V40.2251H119.955L120.795 39.3882V39.1188H118.303V41.3698H120.747V41.1004Z" fill="#272F1F"/>
<path d="M125.537 38.5224H125.247L124.378 39.3882V46.2854H127.584L128.425 45.4485V45.1791H125.537V38.5224ZM126.194 38.5224H125.904V44.8521H128.425V44.5827H126.194V38.5224Z" fill="#272F1F"/>
<path d="M133.669 38.5224H133.379V45.1791H133.012V38.5224H132.723L131.853 39.3882V46.3142H132.8L133.669 45.4485V38.5224Z" fill="#272F1F"/>
<path d="M104 43.6713C104.492 43.6713 104.891 43.274 104.891 42.784C104.891 42.294 104.492 41.8968 104 41.8968C103.508 41.8968 103.109 42.294 103.109 42.784C103.109 43.274 103.508 43.6713 104 43.6713Z" fill="#272F1F"/>
<path d="M46.7062 43.6713C47.1982 43.6713 47.597 43.274 47.597 42.784C47.597 42.294 47.1982 41.8968 46.7062 41.8968C46.2142 41.8968 45.8154 42.294 45.8154 42.784C45.8154 43.274 46.2142 43.6713 46.7062 43.6713Z" fill="#272F1F"/>
<path fill-rule="evenodd" clip-rule="evenodd" d="M85.835 53.3701C85.9387 53.4562 85.9733 53.594 85.956 53.7318C85.9041 54.0245 85.4892 54.3 84.8841 54.4378C84.0023 54.6617 83.1032 54.8166 82.2042 54.9027L82.671 54.9716C84.4345 55.1955 84.8149 55.4538 84.9359 55.6432C85.1434 56.0221 84.6939 56.2459 84.3308 56.2459C83.9677 56.2459 83.449 56.1426 82.792 55.936C82.0832 55.6949 81.3397 55.4194 80.7 55.0405C80.3024 55.0749 79.8701 55.1094 79.3687 55.1094C79.6281 55.1955 79.922 55.2988 80.2159 55.4194C81.8584 56.0737 82.1523 56.4181 82.2215 56.6075C82.3425 56.8659 82.0486 57.1069 81.7893 57.1069C81.4262 57.1069 80.8556 56.8659 80.0776 56.3837C79.386 55.936 78.7117 55.4194 78.3487 55.0922C77.83 55.0749 77.2767 55.0233 76.6716 54.9544C76.9655 55.1266 77.3286 55.3333 77.6917 55.5743C79.1959 56.5042 79.4206 56.9003 79.4552 57.1069C79.4898 57.348 79.2823 57.5202 79.023 57.5202C78.6599 57.5202 78.1066 57.1586 77.3978 56.487C76.9137 56.0565 76.2048 55.1783 75.8936 54.8855C75.3576 54.8166 74.666 54.7133 74.1474 54.6272C74.1128 54.6272 74.0782 54.61 74.0436 54.61L74.9427 55.2299C76.3777 56.2631 76.5852 56.6592 76.6024 56.8831C76.6024 57.0897 76.4468 57.2619 76.2048 57.2619C75.7898 57.2619 75.2539 56.8314 74.5796 56.1254C74.0263 55.5399 73.4904 54.8683 73.231 54.455C72.6778 54.3517 72.1937 54.2312 71.796 54.1278C71.6231 54.0934 71.6923 53.8007 71.8824 53.8351C72.2974 53.9384 72.695 54.0073 73.0754 54.0934C73.5077 53.7318 74.1992 53.2152 74.9081 52.8019C75.7726 52.3025 76.3777 52.0786 76.7235 52.1475C76.9482 52.182 77.1557 52.3714 77.0693 52.6297C76.9828 52.8191 76.7408 53.0085 76.2912 53.2324C75.98 53.4046 75.5305 53.5768 75.0118 53.7662C74.5104 53.9556 74.009 54.1106 73.6633 54.2139C74.3721 54.3517 75.081 54.4895 75.8763 54.5583C76.2221 54.2139 76.8272 53.6629 77.4669 53.1807C78.2622 52.5952 78.8328 52.3197 79.1959 52.3369C79.4206 52.3369 79.6627 52.5264 79.5762 52.7847C79.5244 52.9741 79.2996 53.1979 78.8846 53.4735C78.5734 53.6629 78.1758 53.8868 77.6571 54.1278C77.2767 54.3173 76.8964 54.5067 76.5852 54.6272C76.8964 54.6617 77.1903 54.6789 77.4496 54.6961L78.4524 54.7478C78.7463 54.3517 79.2996 53.6973 79.8874 53.1291C80.5963 52.4575 81.1323 52.0959 81.4953 52.0786C81.7201 52.0614 81.9794 52.2164 81.9276 52.4747C81.9103 52.6813 81.7028 52.9224 81.3224 53.2324C81.0458 53.4735 80.6654 53.749 80.1986 54.059C79.7664 54.3345 79.3515 54.5756 79.0575 54.7478C79.6281 54.765 80.2332 54.7478 80.8729 54.7133C81.1668 54.3173 81.7028 53.7146 82.2561 53.1635C82.9649 52.4919 83.5182 52.1303 83.864 52.0959C84.0887 52.0959 84.3481 52.2336 84.3135 52.5091C84.2789 52.6986 84.0887 52.9396 83.7084 53.2668C83.4317 53.5079 83.0514 53.7834 82.5846 54.0762C82.3079 54.2656 82.0486 54.4206 81.8066 54.5583C82.7575 54.3517 83.3626 54.0245 83.8813 53.7662C84.0887 53.6629 84.2616 53.5596 84.4518 53.4735C85.057 53.2152 85.5756 53.1807 85.835 53.3701ZM76.6024 52.423C76.0492 52.423 74.7698 53.1807 73.8707 53.8351C74.1819 53.749 74.545 53.6285 74.9081 53.4907C75.4268 53.3013 75.8417 53.1291 76.1702 52.9741C76.6716 52.7158 76.7926 52.578 76.7926 52.5264C76.7926 52.4747 76.7581 52.423 76.6024 52.423ZM83.8986 52.3886C83.4836 52.3886 82.2388 53.5251 81.4953 54.4034C81.772 54.2484 82.0832 54.0417 82.4117 53.8351C82.8785 53.5423 83.2416 53.2668 83.5182 53.043C83.9504 52.6813 84.0196 52.5264 84.0196 52.4575C84.0196 52.4058 83.9677 52.3886 83.8986 52.3886ZM78.6426 56.5903C78.3833 56.3665 78.0029 56.1082 77.5361 55.8154C77.2076 55.6088 76.8791 55.4194 76.6024 55.2644C77.3632 56.1254 78.5216 57.1758 79.023 57.2275C79.1094 57.2447 79.144 57.2103 79.1613 57.1586C79.144 57.1069 79.0748 56.952 78.6426 56.5903ZM83.985 55.4882C83.6392 55.4021 83.1897 55.3333 82.6364 55.2644C82.2561 55.2127 81.8757 55.1783 81.5645 55.1438C82.6191 55.6088 84.1233 56.1082 84.5901 55.9187C84.6593 55.8843 84.6939 55.8154 84.6593 55.7638C84.6247 55.6949 84.521 55.626 83.985 55.4882ZM75.8244 56.3148C75.5651 56.0737 75.2193 55.781 74.7698 55.471C74.4413 55.2299 74.1301 55.0233 73.8707 54.8511C74.5796 55.7638 75.6688 56.9175 76.1702 56.9692C76.1875 56.9692 76.3085 56.9692 76.3085 56.9175C76.3085 56.8486 76.2394 56.6936 75.8244 56.3148ZM81.3397 56.2459C81.0285 56.0737 80.6136 55.8843 80.0949 55.6949C79.7318 55.5571 79.386 55.4194 79.0748 55.316C79.9912 56.0221 81.3397 56.8659 81.8411 56.797C81.8757 56.797 81.9622 56.7625 81.9449 56.7109C81.9276 56.6592 81.8411 56.5042 81.3397 56.2459ZM79.1613 52.6297C78.6426 52.6297 77.3978 53.5596 76.5506 54.3173C76.8445 54.1967 77.1903 54.0417 77.5361 53.8695C78.0375 53.6285 78.4351 53.4218 78.729 53.2152C79.1959 52.9224 79.2996 52.7674 79.2996 52.6986C79.2996 52.6469 79.2477 52.6297 79.1613 52.6297ZM81.5126 52.3714C81.1668 52.3714 80.5098 52.9224 79.8874 53.5423C79.6108 53.8179 79.3515 54.1106 79.1094 54.3861C79.386 54.2139 79.7145 54.0245 80.043 53.8007C80.4926 53.5079 80.8729 53.2324 81.1323 53.0085C81.5645 52.6469 81.6337 52.4919 81.6337 52.4403C81.6337 52.3886 81.5818 52.3714 81.5126 52.3714ZM85.6621 53.6629C85.6621 53.5596 85.5065 53.5423 85.3854 53.5423C85.1953 53.5423 84.9359 53.594 84.5728 53.749L84.0196 54.0245C83.7084 54.1795 83.3626 54.3689 82.9304 54.5239C83.5701 54.4378 84.2098 54.3173 84.8149 54.1623C85.4373 54.0073 85.6621 53.7662 85.6621 53.6629Z" fill="#272F1F"/>
<path fill-rule="evenodd" clip-rule="evenodd" d="M53.9831 53.3701C54.2425 53.1807 54.7611 53.2152 55.3663 53.4735C55.5565 53.5596 55.7293 53.6629 55.9368 53.7662C56.4555 54.0245 57.0606 54.3517 58.0115 54.5583C57.7695 54.4206 57.5101 54.2656 57.2335 54.0762C56.7667 53.7834 56.3863 53.5079 56.1097 53.2668C55.7293 52.9396 55.5392 52.6986 55.5046 52.5091C55.47 52.2336 55.7293 52.0959 55.9541 52.0959C56.2999 52.1303 56.8532 52.4919 57.562 53.1635C58.1153 53.7146 58.6512 54.3173 58.9452 54.7133C59.5849 54.7478 60.19 54.765 60.7605 54.7478C60.4666 54.5756 60.0517 54.3345 59.6194 54.059C59.1526 53.749 58.7723 53.4735 58.4956 53.2324C58.1153 52.9224 57.9078 52.6813 57.8905 52.4747C57.8386 52.2164 58.098 52.0614 58.3227 52.0786C58.6858 52.0959 59.2218 52.4575 59.9307 53.1291C60.5185 53.6973 61.0718 54.3517 61.3657 54.7478L62.3685 54.6961C62.6278 54.6789 62.9217 54.6617 63.2329 54.6272C62.9217 54.5067 62.5414 54.3173 62.161 54.1278C61.6423 53.8868 61.2446 53.6629 60.9334 53.4735C60.5185 53.1979 60.2937 52.9741 60.2419 52.7847C60.1554 52.5264 60.3975 52.3369 60.6222 52.3369C60.9853 52.3197 61.5559 52.5952 62.3512 53.1807C62.9909 53.6629 63.596 54.2139 63.9418 54.5583C64.7371 54.4895 65.446 54.3517 66.1548 54.2139C65.809 54.1106 65.3076 53.9556 64.8063 53.7662C64.2876 53.5768 63.8381 53.4046 63.5268 53.2324C63.0773 53.0085 62.8353 52.8191 62.7488 52.6297C62.6624 52.3714 62.8698 52.182 63.0946 52.1475C63.4404 52.0786 64.0455 52.3025 64.91 52.8019C65.6189 53.2152 66.3104 53.7318 66.7427 54.0934C67.123 54.0073 67.5207 53.9384 67.9356 53.8351C68.1258 53.8007 68.195 54.0934 68.0221 54.1278C67.6244 54.2312 67.1403 54.3517 66.5871 54.455C66.3277 54.8683 65.7917 55.5399 65.2385 56.1254C64.5642 56.8314 64.0282 57.2619 63.6133 57.2619C63.3712 57.2619 63.2156 57.0897 63.2156 56.8831C63.2329 56.6592 63.4404 56.2631 64.8754 55.2299L65.7745 54.61C65.7399 54.61 65.7053 54.6272 65.6707 54.6272C65.152 54.7133 64.4605 54.8166 63.9245 54.8855C63.6133 55.1783 62.9044 56.0565 62.4203 56.487C61.7115 57.1586 61.1582 57.5202 60.7951 57.5202C60.5358 57.5202 60.3283 57.348 60.3629 57.1069C60.3975 56.9003 60.6222 56.5042 62.1264 55.5743C62.4895 55.3333 62.8526 55.1266 63.1465 54.9544C62.5414 55.0233 61.9881 55.0749 61.4694 55.0922C61.1063 55.4194 60.432 55.936 59.7405 56.3837C58.9625 56.8659 58.3919 57.1069 58.0288 57.1069C57.7695 57.1069 57.4756 56.8659 57.5966 56.6075C57.6658 56.4181 57.9597 56.0737 59.6022 55.4194C59.8961 55.2988 60.19 55.1955 60.4493 55.1094C59.9479 55.1094 59.5157 55.0749 59.1181 55.0405C58.4784 55.4194 57.7349 55.6949 57.026 55.936C56.3691 56.1426 55.8504 56.2459 55.4873 56.2459C55.1242 56.2459 54.6747 56.0221 54.8822 55.6432C55.0032 55.4538 55.3836 55.1955 57.1471 54.9716L57.6139 54.9027C56.7148 54.8166 55.8158 54.6617 54.934 54.4378C54.3289 54.3 53.914 54.0245 53.8621 53.7318C53.8448 53.594 53.8794 53.4562 53.9831 53.3701ZM63.2156 52.423C63.06 52.423 63.0255 52.4747 63.0255 52.5264C63.0255 52.578 63.1465 52.7158 63.6479 52.9741C63.9764 53.1291 64.3913 53.3013 64.91 53.4907C65.2731 53.6285 65.6361 53.749 65.9474 53.8351C65.0483 53.1807 63.7689 52.423 63.2156 52.423ZM55.9195 52.3886C55.8504 52.3886 55.7985 52.4058 55.7985 52.4575C55.7985 52.5264 55.8677 52.6813 56.2999 53.043C56.5765 53.2668 56.9396 53.5423 57.4064 53.8351C57.7349 54.0417 58.0461 54.2484 58.3227 54.4034C57.5793 53.5251 56.3345 52.3886 55.9195 52.3886ZM61.1755 56.5903C60.7433 56.952 60.6741 57.1069 60.6568 57.1586C60.6741 57.2103 60.7087 57.2447 60.7951 57.2275C61.2965 57.1758 62.4549 56.1254 63.2156 55.2644C62.939 55.4194 62.6105 55.6088 62.282 55.8154C61.8152 56.1082 61.4348 56.3665 61.1755 56.5903ZM55.8331 55.4882C55.2971 55.626 55.1934 55.6949 55.1588 55.7638C55.1242 55.8154 55.1588 55.8843 55.228 55.9187C55.6948 56.1082 57.1989 55.6088 58.2536 55.1438C57.9424 55.1783 57.562 55.2127 57.1817 55.2644C56.6284 55.3333 56.1789 55.4021 55.8331 55.4882ZM63.9937 56.3148C63.5787 56.6936 63.5096 56.8486 63.5096 56.9175C63.5096 56.9692 63.6306 56.9692 63.6479 56.9692C64.1493 56.9175 65.2385 55.7638 65.9474 54.8511C65.688 55.0233 65.3768 55.2299 65.0483 55.471C64.5988 55.781 64.253 56.0737 63.9937 56.3148ZM58.4784 56.2459C57.977 56.5042 57.8905 56.6592 57.8732 56.7109C57.8559 56.7625 57.9424 56.797 57.977 56.797C58.4784 56.8659 59.8269 56.0221 60.7433 55.316C60.432 55.4194 60.0863 55.5571 59.7232 55.6949C59.2045 55.8843 58.7896 56.0737 58.4784 56.2459ZM60.6568 52.6297C60.5704 52.6297 60.5185 52.6469 60.5185 52.6986C60.5185 52.7674 60.6222 52.9224 61.089 53.2152C61.383 53.4218 61.7806 53.6285 62.282 53.8695C62.6278 54.0417 62.9736 54.1967 63.2675 54.3173C62.4203 53.5596 61.1755 52.6297 60.6568 52.6297ZM58.3055 52.3714C58.2363 52.3714 58.1844 52.3886 58.1844 52.4403C58.1844 52.4919 58.2536 52.6469 58.6858 53.0085C58.9452 53.2324 59.3255 53.5079 59.7751 53.8007C60.1036 54.0245 60.432 54.2139 60.7087 54.3861C60.4666 54.1106 60.2073 53.8179 59.9307 53.5423C59.3082 52.9224 58.6512 52.3714 58.3055 52.3714ZM54.156 53.6629C54.156 53.7662 54.3808 54.0073 55.0032 54.1623C55.6083 54.3173 56.248 54.4378 56.8877 54.5239C56.4555 54.3689 56.1097 54.1795 55.7985 54.0245L55.2452 53.749C54.8822 53.594 54.6228 53.5423 54.4326 53.5423C54.3116 53.5423 54.156 53.5596 54.156 53.6629Z" fill="#272F1F"/>
</svg>
