<svg width="143" height="59" viewBox="0 0 143 59" fill="none" xmlns="http://www.w3.org/2000/svg">
<path d="M4.90993 32.1708L7.68539 31.5937L9.69709 28.5198L8.05565 20.7465L13.7482 19.5629L15.9268 29.8802L18.7306 29.2973L20.7423 26.2234L16.4447 5.8714L15.5951 6.04805L19.7255 25.6085L18.6493 25.8323L16.4886 15.5998L6.5196 17.6725L8.68033 27.905L7.60413 28.1287L3.47368 8.56825L2.62404 8.74489L0.612347 11.8188L4.90993 32.1708ZM14.5189 6.27181L13.6693 6.44846L11.6576 9.5224L12.72 14.5539L6.99916 15.7433L5.39951 8.16784L4.54988 8.34449L6.31666 16.7114L16.2857 14.6387L14.5189 6.27181Z" fill="#4E5D3E"/>
<path d="M42.5078 23.5279C43.9621 21.7101 45.3129 19.2356 44.9586 16.1081L43.4014 2.3642L42.5384 2.46014L44.0891 16.1466C44.5215 19.9628 42.561 22.97 38.8215 23.3857C35.0819 23.8015 32.4908 21.2422 32.0649 17.4835L30.5142 3.79695L29.6512 3.8929L27.3549 6.76308L28.8601 20.0479C29.3347 24.237 32.5021 27.2552 36.8745 26.7691C39.147 26.5164 40.7982 25.6646 42.5078 23.5279ZM39.3251 20.8892C39.0444 21.24 38.6037 21.4633 37.9708 21.5337C37.2229 21.6168 36.4425 21.413 35.7413 20.8808C34.8801 20.2212 34.2323 19.131 34.0047 17.1225L32.4703 3.57948L31.6073 3.67542L33.1483 17.2758C33.5286 20.6329 35.5689 22.7014 38.7044 22.3528C41.8399 22.0042 43.3666 19.5392 42.9895 16.2108L41.4453 2.58167L40.5823 2.67762L38.3147 5.54461L39.6866 17.653C39.9077 19.6041 39.7078 20.4108 39.3251 20.8892Z" fill="#4E5D3E"/>
<path d="M60.4597 20.8613C63.3837 20.775 65.1852 19.0182 65.1138 16.6525C65.0538 14.6619 64.1197 13.4767 60.6101 11.4435C57.3365 9.54768 56.3086 8.13424 56.2546 6.34556C56.1867 4.09528 58.0374 2.04827 61.1062 1.95771C62.6117 1.91329 64.0714 2.27447 65.625 2.86388L65.8594 1.9907C64.2172 1.34615 62.7882 1.04181 61.109 1.09136C59.2562 1.14604 57.5646 1.74459 55.7955 3.61594C53.8299 5.69523 53.2058 7.09966 53.2555 8.74409C53.326 11.0809 54.5652 12.7769 57.8389 14.6727C60.8765 16.4311 61.4299 17.4831 61.4595 18.464C61.4743 18.9545 61.3689 19.3041 61.1443 19.5417C60.8635 19.8387 60.5494 19.9924 59.7677 20.0155C58.5517 20.0513 57.0587 19.5468 55.5017 18.842L53.1429 21.3371L52.6773 24.1517C54.7309 24.9863 56.5091 25.3381 58.4198 25.2817C60.707 25.2142 62.7627 24.2006 64.1948 22.6857C65.7673 21.0223 67.1811 18.9016 67.1097 16.5359C67.0227 13.6509 65.2307 11.8846 61.6334 9.82514C58.9501 8.2873 58.552 7.57716 58.5363 7.05786C58.5319 6.91362 58.6127 6.70911 58.725 6.59029C58.9497 6.35266 59.3787 6.16674 60.1025 6.14539C61.0579 6.11719 62.1114 6.46148 63.1106 6.92288L65.1596 4.72564L65.3949 3.88131C64.0422 3.22821 62.4096 2.90101 61.1069 2.93945C58.4723 3.0172 57.3323 4.61011 57.3828 6.28339C57.4264 7.72588 58.1841 8.82966 61.163 10.5609C64.8498 12.7044 66.1654 14.0516 66.2412 16.5615C66.3256 19.3599 64.0792 21.7363 60.4603 21.843C58.9259 21.8883 57.4995 21.6705 55.7977 20.97L55.9707 19.9831C57.6436 20.6845 58.8674 20.9083 60.4597 20.8613Z" fill="#4E5D3E"/>
<path d="M79.4026 1.64481L78.5349 1.60505L75.8101 4.08073L74.8424 24.7538L84.4456 25.1938L87.0796 22.8007L87.1174 21.9933L78.4686 21.5971L79.4026 1.64481ZM81.3696 1.73492L80.5018 1.69517L79.6137 20.6671L87.1633 21.013L87.201 20.2057L80.5193 19.8996L81.3696 1.73492Z" fill="#4E5D3E"/>
<path d="M100.438 17.9439C99.9196 16.5929 99.7193 15.051 99.9402 13.4194C100.208 11.4443 100.954 10.0283 101.996 9.23433C103.039 8.44037 104.457 8.10436 106.179 8.33317C107.47 8.50478 108.697 8.93019 109.665 9.5541L100.438 17.9439ZM101.456 20.9932C102.74 22.3002 104.459 23.1989 106.525 23.4734C111.489 24.1332 115.771 20.7684 116.456 15.7018C116.82 13.0111 116.097 10.5839 114.675 8.79216L101.456 20.9932ZM98.5254 25.3826C100.062 26.5484 101.746 27.2676 103.583 27.5117C106.882 27.9502 109.779 27.053 112.58 24.9193C116.749 21.7434 118.123 18.9248 118.53 15.9192C118.925 12.9995 118.155 10.2745 116.632 8.14886L118.465 6.46937L117.871 5.89504L115.472 8.08219C117.158 10.0838 118.036 12.8812 117.633 15.8582C116.885 21.3828 111.866 25.2323 106.385 24.5039C104.204 24.2141 102.227 23.2812 100.655 21.7318L98.5531 23.667L97.7737 22.9515L99.941 20.9667C98.2874 18.9402 97.4348 16.1752 97.8339 13.2269C98.5817 7.70235 103.601 3.85281 109.082 4.58118C111.377 4.88626 113.425 5.94514 114.758 7.31705L117.092 5.17952L116.498 4.60519L113.732 5.40315C112.526 4.6018 110.944 3.98369 109.251 3.7587C105.837 3.30489 102.86 4.36621 100.222 6.37592C96.9649 8.85703 94.9776 11.8857 94.4778 15.5783C94.1562 17.9541 94.6272 20.0856 95.5789 21.9022L93.348 24.1408L95.4072 26.192L98.5254 25.3826ZM113.989 8.03083C112.698 6.78104 111.008 5.88624 108.942 5.61167C103.978 4.95194 99.7 8.28807 99.0103 13.3833C98.6539 16.0167 99.3482 18.4402 100.771 20.2319L113.989 8.03083ZM112.122 12.3285C112.859 13.7959 113.122 15.5209 112.854 17.496C112.579 19.5284 111.894 20.9234 110.852 21.7174C109.809 22.5113 108.535 22.8664 106.727 22.6261C105.12 22.4126 103.826 21.8326 102.685 20.9816L112.122 12.3285Z" fill="#4E5D3E"/>
<path d="M131.033 27.8431C133.884 28.4813 136.067 27.2237 136.592 24.9138C137.034 22.97 136.428 21.591 133.544 18.7544C130.853 16.1093 130.213 14.4859 130.61 12.7394C131.11 10.5421 133.414 9.01542 136.405 9.68523C137.873 10.0138 139.194 10.7242 140.549 11.6788L140.995 10.8906C139.568 9.86062 138.262 9.21295 136.626 8.84644C134.819 8.44203 133.033 8.60444 130.852 9.98106C128.428 11.5106 127.472 12.7175 127.107 14.3232C126.588 16.605 127.361 18.5542 130.052 21.1994C132.549 23.6531 132.82 24.8092 132.602 25.767C132.494 26.2459 132.304 26.5586 132.027 26.7334C131.681 26.952 131.338 27.0233 130.576 26.8527C129.391 26.5873 128.073 25.7298 126.744 24.6625L123.836 26.4979L122.678 29.1104C124.455 30.426 126.087 31.2058 127.95 31.6229C130.179 32.1221 132.423 31.6474 134.188 30.533C136.127 29.3094 138.027 27.6034 138.552 25.2934C139.193 22.4764 137.903 20.3226 134.94 17.4389C132.73 15.2863 132.523 14.4999 132.639 13.9929C132.671 13.852 132.8 13.6738 132.939 13.5864C133.216 13.4116 133.677 13.3373 134.383 13.4953C135.314 13.7038 136.247 14.2975 137.098 14.9913L139.631 13.368L140.071 12.6079C138.927 11.6411 137.429 10.9211 136.159 10.6367C133.591 10.0617 132.089 11.3238 131.717 12.9576C131.397 14.3662 131.853 15.6228 134.3 18.0357C137.328 21.0229 138.263 22.6531 137.706 25.1039C137.085 27.8364 134.315 29.5845 130.787 28.7946C129.292 28.4597 127.966 27.8965 126.496 26.7976L126.911 25.884C128.353 26.9766 129.481 27.4956 131.033 27.8431Z" fill="#4E5D3E"/>
<path d="M8.22904 44.6687V46.5926H7.86203V40.2053H9.04999C10.3732 40.2053 11.5225 41.0518 11.5225 42.4081C11.5225 43.9088 10.1607 44.6687 8.93409 44.6687H8.22904ZM11.3293 43.8895C11.4742 43.726 11.8315 43.1777 11.8315 42.3889C11.8315 40.9075 10.6146 39.9359 9.05964 39.9359H7.57229L6.70305 40.8017V47.7277H7.64955L8.51879 46.862V45.7653C9.66811 45.6114 10.3538 45.0054 11.3293 43.8895ZM8.22904 40.5323V44.3513H8.93409C10.1993 44.3513 11.1555 43.6298 11.1555 42.3985C11.1555 41.35 10.2862 40.5323 9.05964 40.5323H8.22904ZM8.49947 44.0915V41.5712H8.7699C9.24315 41.5712 9.59084 41.7348 9.82264 41.9849C10.0448 42.2254 10.1607 42.562 10.1607 42.9468C10.1607 43.2739 10.0738 43.5913 9.89991 43.7741C9.69708 43.9857 9.48461 44.0915 8.96306 44.0915H8.49947Z" fill="#4E5D3E"/>
<path d="M16.8922 39.9359H16.6024V46.5926H16.2354V39.9359H15.9457L15.0764 40.8017V47.7277H16.0229L16.8922 46.862V39.9359Z" fill="#4E5D3E"/>
<path d="M25.401 46.862V46.5926H21.3929L21.3735 46.5638L24.609 40.5323H21.4894V40.2053H25.1402L25.1595 40.2341L21.9241 46.2656H25.401V45.9962H22.3877L25.5845 39.984L25.5555 39.9359H21.2963L20.427 40.8017V41.6386H23.2569L20.1276 47.4969L20.2725 47.6989H24.5607L25.401 46.862Z" fill="#4E5D3E"/>
<path d="M33.3788 46.862V46.5926H29.3707L29.3513 46.5638L32.5868 40.5323H29.4672V40.2053H33.118L33.1373 40.2341L29.9019 46.2656H33.3788V45.9962H30.3655L33.5623 39.984L33.5333 39.9359H29.2741L28.4048 40.8017V41.6386H31.2347L28.1054 47.4969L28.2503 47.6989H32.5385L33.3788 46.862Z" fill="#4E5D3E"/>
<path d="M40.0044 41.071L38.4398 44.9669H41.4917L40.0044 41.071ZM40.1396 44.6976H38.8357L39.5118 43.0334L40.1396 44.6976ZM38.2369 46.3329H40.7481L41.2696 47.7277H42.0326L42.9018 46.862L40.1396 39.782H39.8692L38.7199 40.9363L35.9866 47.7277H37.1649L38.0341 46.862L38.2369 46.3329ZM42.4865 46.5926H42.1002L41.6173 45.294H38.3142L37.8216 46.5926H37.445L39.9851 40.1764H40.0237L42.4865 46.5926Z" fill="#4E5D3E"/>
<path d="M54.1294 47.9608C55.385 47.9608 56.148 47.5375 57.1331 46.5563C57.8285 45.8637 58.3211 44.9306 58.3887 43.7474H54.8345L54.0425 44.5362V45.4404H56.8627C56.6888 45.7098 56.0804 46.21 54.9987 46.21C53.521 46.21 52.3716 45.0941 52.3716 43.5358C52.3716 42.8432 52.5648 42.3622 52.8449 42.0832C53.125 41.8043 53.521 41.6311 54.1487 41.6311C54.8731 41.6311 55.6458 41.8908 56.2929 42.4295L57.2297 41.5638L57.3359 41.2752C56.7758 40.8808 55.8582 40.496 54.9987 40.496C53.3858 40.496 52.0626 41.6888 52.0626 43.5069C52.0626 45.2673 53.3664 46.4986 54.9987 46.4986C56.7178 46.4986 57.4615 45.3827 57.6933 44.3438H55.0276V44.0168H58.0893C57.9251 45.3827 56.9303 46.8449 54.9987 46.8449C53.1057 46.8449 51.6666 45.3923 51.6666 43.5069C51.6666 41.5061 53.2892 40.1497 54.9987 40.1497C55.9935 40.1497 56.882 40.5441 57.4422 40.9577L57.5388 40.6595C56.9689 40.2844 56.0997 39.8707 55.018 39.8707C53.8687 39.8707 52.9318 40.3517 52.1495 41.1309C51.1837 42.0928 50.6621 43.1895 50.6621 44.4208C50.6621 46.5178 52.391 47.9608 54.1294 47.9608Z" fill="#4E5D3E"/>
<path d="M62.793 40.3036H65.6518V40.0343H62.5032L61.634 40.9001V47.7973H64.8308L65.6711 46.9604V46.691H62.793V40.3036ZM65.6711 46.0946H63.4497V44.315H64.7632L65.6035 43.4781V43.2087H63.16V46.3639H65.6711V46.0946ZM65.6035 42.6123H63.4497V41.737H64.8115L65.6518 40.9001V40.6307H63.16V42.8817H65.6035V42.6123Z" fill="#4E5D3E"/>
<path d="M70.3938 40.0343H70.1041L69.2349 40.9001V47.7973H72.4414L73.2816 46.9604V46.691H70.3938V40.0343ZM71.0506 40.0343H70.7609V46.3639H73.2816V46.0946H71.0506V40.0343Z" fill="#4E5D3E"/>
<path d="M79.8494 41.1694L78.2848 45.0653H81.3368L79.8494 41.1694ZM79.9846 44.796H78.6808L79.3569 43.1318L79.9846 44.796ZM78.082 46.4313H80.5931L81.1147 47.8261H81.8777L82.7469 46.9604L79.9846 39.8804H79.7142L78.5649 41.0347L75.8316 47.8261H77.0099L77.8792 46.9604L78.082 46.4313ZM82.3316 46.691H81.9453L81.4624 45.3924H78.1593L77.6667 46.691H77.29L79.8301 40.2748H79.8688L82.3316 46.691Z" fill="#4E5D3E"/>
<path d="M87.5661 40.6307H85.8084V40.3036H89.8841V40.0343H85.6152L84.746 40.9001V41.737H86.4072V47.8261H87.3537L88.2229 46.9604V41.737H89.0438L89.8841 40.9001V40.6307H87.9331V46.691H87.5661V40.6307Z" fill="#4E5D3E"/>
<path d="M98.4218 44.3438C98.4218 44.9499 98.2577 45.4212 97.9486 45.729C97.6395 46.0369 97.2339 46.21 96.6254 46.21C95.0318 46.21 93.9694 45.0268 93.9694 43.4684C93.9694 42.8047 94.1529 42.3045 94.462 41.9966C94.771 41.6888 95.2346 41.5157 95.8721 41.5157C97.3401 41.5157 98.4218 42.6315 98.4218 44.3438ZM93.2644 43.4973C93.2644 41.6407 94.7517 40.1497 96.5964 40.1497C98.4701 40.1497 99.9285 41.6119 99.9285 43.4973C99.9285 45.3539 98.4412 46.8449 96.5964 46.8449C94.7228 46.8449 93.2644 45.3827 93.2644 43.4973ZM93.6604 43.4973C93.6604 45.2096 94.9256 46.4986 96.5964 46.4986C98.2673 46.4986 99.5325 45.2 99.5325 43.4973C99.5325 41.785 98.2673 40.496 96.5964 40.496C94.9256 40.496 93.6604 41.785 93.6604 43.4973ZM100.228 43.4781C100.228 41.458 98.6247 39.8707 96.6158 39.8707C95.4664 39.8707 94.5296 40.3517 93.7473 41.1309C92.7815 42.0928 92.2599 43.1799 92.2599 44.4208C92.2599 46.5178 94.0177 47.9608 95.8045 47.9608C96.9152 47.9608 97.8327 47.5375 98.6633 46.7102C99.8995 45.4789 100.228 44.4881 100.228 43.4781Z" fill="#4E5D3E"/>
<path d="M109.744 45.5076V41.1981H109.889C110.314 41.1981 110.825 41.4097 111.154 41.7368C111.579 42.1697 111.791 42.843 111.791 43.5741C111.791 44.2475 111.608 44.7765 111.328 45.0555C110.999 45.3826 110.497 45.5076 109.889 45.5076H109.744ZM108.807 39.4473L107.938 40.3131V47.2392H109C111.134 47.2392 112.496 45.6712 113.114 44.5553C113.337 44.1513 113.539 43.5452 113.539 42.8911C113.539 40.8806 112.1 39.4473 109.927 39.4473H108.807ZM109.097 46.104V39.7167H109.927C111.888 39.7167 113.24 41.0538 113.24 42.8911C113.24 44.7092 111.859 46.104 109.869 46.104H109.097ZM109.869 45.777C111.685 45.777 112.863 44.5649 112.863 42.8911C112.863 41.1788 111.656 40.0437 109.908 40.0437H109.464V45.777H109.869Z" fill="#4E5D3E"/>
<path d="M118.011 39.7167H120.87V39.4473H117.721L116.852 40.3131V47.2103H120.049L120.889 46.3734V46.104H118.011V39.7167ZM120.889 45.5076H118.668V43.728H119.981L120.822 42.8911V42.6218H118.378V45.777H120.889V45.5076ZM120.822 42.0254H118.668V41.15H120.03L120.87 40.3131V40.0437H118.378V42.2947H120.822V42.0254Z" fill="#4E5D3E"/>
<path d="M125.612 39.4473H125.322L124.453 40.3131V47.2103H127.66L128.5 46.3734V46.104H125.612V39.4473ZM126.269 39.4473H125.979V45.777H128.5V45.5076H126.269V39.4473Z" fill="#4E5D3E"/>
<path d="M133.744 39.4473H133.454V46.104H133.087V39.4473H132.798L131.928 40.3131V47.2392H132.875L133.744 46.3734V39.4473Z" fill="#4E5D3E"/>
<path d="M104.075 44.5962C104.567 44.5962 104.966 44.199 104.966 43.7089C104.966 43.2189 104.567 42.8217 104.075 42.8217C103.583 42.8217 103.184 43.2189 103.184 43.7089C103.184 44.199 103.583 44.5962 104.075 44.5962Z" fill="#4E5D3E"/>
<path d="M46.7813 44.5962C47.2733 44.5962 47.6721 44.199 47.6721 43.7089C47.6721 43.2189 47.2733 42.8217 46.7813 42.8217C46.2894 42.8217 45.8905 43.2189 45.8905 43.7089C45.8905 44.199 46.2894 44.5962 46.7813 44.5962Z" fill="#4E5D3E"/>
<path fill-rule="evenodd" clip-rule="evenodd" d="M85.9101 54.2951C86.0139 54.3812 86.0484 54.5189 86.0312 54.6567C85.9793 54.9494 85.5643 55.225 84.9592 55.3627C84.0775 55.5866 83.1784 55.7416 82.2794 55.8277L82.7462 55.8966C84.5097 56.1204 84.8901 56.3787 85.0111 56.5681C85.2186 56.947 84.769 57.1708 84.406 57.1708C84.0429 57.1708 83.5242 57.0675 82.8672 56.8609C82.1583 56.6198 81.4149 56.3443 80.7752 55.9654C80.3775 55.9999 79.9453 56.0343 79.4439 56.0343C79.7032 56.1204 79.9972 56.2237 80.2911 56.3443C81.9336 56.9986 82.2275 57.3431 82.2967 57.5325C82.4177 57.7908 82.1238 58.0319 81.8644 58.0319C81.5013 58.0319 80.9308 57.7908 80.1528 57.3086C79.4612 56.8609 78.7869 56.3443 78.4238 56.0171C77.9051 55.9999 77.3519 55.9482 76.7468 55.8793C77.0407 56.0515 77.4038 56.2582 77.7668 56.4993C79.271 57.4292 79.4958 57.8252 79.5304 58.0319C79.5649 58.2729 79.3575 58.4451 79.0981 58.4451C78.735 58.4451 78.1818 58.0835 77.4729 57.4119C76.9888 56.9814 76.2799 56.1032 75.9687 55.8105C75.4328 55.7416 74.7412 55.6383 74.2225 55.5521C74.1879 55.5521 74.1534 55.5349 74.1188 55.5349L75.0178 56.1549C76.4528 57.1881 76.6603 57.5841 76.6776 57.808C76.6776 58.0146 76.522 58.1868 76.2799 58.1868C75.865 58.1868 75.329 57.7563 74.6547 57.0503C74.1015 56.4648 73.5655 55.7932 73.3062 55.3799C72.7529 55.2766 72.2688 55.1561 71.8712 55.0528C71.6983 55.0183 71.7674 54.7256 71.9576 54.76C72.3725 54.8633 72.7702 54.9322 73.1506 55.0183C73.5828 54.6567 74.2744 54.1401 74.9832 53.7268C75.8477 53.2274 76.4528 53.0036 76.7986 53.0724C77.0234 53.1069 77.2309 53.2963 77.1444 53.5546C77.058 53.744 76.8159 53.9334 76.3664 54.1573C76.0552 54.3295 75.6057 54.5017 75.087 54.6911C74.5856 54.8806 74.0842 55.0355 73.7384 55.1389C74.4473 55.2766 75.1561 55.4144 75.9514 55.4833C76.2972 55.1389 76.9024 54.5878 77.5421 54.1057C78.3374 53.5202 78.9079 53.2446 79.271 53.2619C79.4958 53.2619 79.7378 53.4513 79.6514 53.7096C79.5995 53.899 79.3747 54.1229 78.9598 54.3984C78.6486 54.5878 78.2509 54.8117 77.7323 55.0528C77.3519 55.2422 76.9715 55.4316 76.6603 55.5521C76.9715 55.5866 77.2654 55.6038 77.5248 55.621L78.5276 55.6727C78.8215 55.2766 79.3747 54.6223 79.9626 54.054C80.6714 53.3824 81.2074 53.0208 81.5705 53.0036C81.7953 52.9863 82.0546 53.1413 82.0027 53.3996C81.9854 53.6063 81.778 53.8473 81.3976 54.1573C81.121 54.3984 80.7406 54.6739 80.2738 54.9839C79.8416 55.2594 79.4266 55.5005 79.1327 55.6727C79.7032 55.6899 80.3084 55.6727 80.9481 55.6383C81.242 55.2422 81.778 54.6395 82.3312 54.0884C83.0401 53.4168 83.5934 53.0552 83.9391 53.0208C84.1639 53.0208 84.4232 53.1585 84.3887 53.4341C84.3541 53.6235 84.1639 53.8646 83.7835 54.1918C83.5069 54.4328 83.1265 54.7084 82.6597 55.0011C82.3831 55.1905 82.1238 55.3455 81.8817 55.4833C82.8326 55.2766 83.4377 54.9494 83.9564 54.6911C84.1639 54.5878 84.3368 54.4845 84.527 54.3984C85.1321 54.1401 85.6508 54.1057 85.9101 54.2951ZM76.6776 53.348C76.1243 53.348 74.8449 54.1057 73.9459 54.76C74.2571 54.6739 74.6202 54.5534 74.9832 54.4156C75.5019 54.2262 75.9169 54.054 76.2454 53.899C76.7468 53.6407 76.8678 53.5029 76.8678 53.4513C76.8678 53.3996 76.8332 53.348 76.6776 53.348ZM83.9737 53.3135C83.5588 53.3135 82.3139 54.4501 81.5705 55.3283C81.8471 55.1733 82.1583 54.9667 82.4868 54.76C82.9536 54.4673 83.3167 54.1918 83.5934 53.9679C84.0256 53.6063 84.0947 53.4513 84.0947 53.3824C84.0947 53.3307 84.0429 53.3135 83.9737 53.3135ZM78.7177 57.5153C78.4584 57.2914 78.078 57.0331 77.6112 56.7403C77.2827 56.5337 76.9542 56.3443 76.6776 56.1893C77.4383 57.0503 78.5967 58.1007 79.0981 58.1524C79.1846 58.1696 79.2191 58.1352 79.2364 58.0835C79.2191 58.0319 79.15 57.8769 78.7177 57.5153ZM84.0602 56.4132C83.7144 56.3271 83.2649 56.2582 82.7116 56.1893C82.3312 56.1376 81.9509 56.1032 81.6397 56.0688C82.6943 56.5337 84.1985 57.0331 84.6653 56.8437C84.7344 56.8092 84.769 56.7403 84.7345 56.6887C84.6999 56.6198 84.5961 56.5509 84.0602 56.4132ZM75.8996 57.2397C75.6402 56.9986 75.2945 56.7059 74.8449 56.3959C74.5164 56.1549 74.2052 55.9482 73.9459 55.776C74.6547 56.6887 75.744 57.8424 76.2454 57.8941C76.2627 57.8941 76.3837 57.8941 76.3837 57.8424C76.3837 57.7736 76.3145 57.6186 75.8996 57.2397ZM81.4149 57.1708C81.1037 56.9986 80.6887 56.8092 80.1701 56.6198C79.807 56.482 79.4612 56.3443 79.15 56.241C80.0663 56.947 81.4149 57.7908 81.9163 57.7219C81.9509 57.7219 82.0373 57.6875 82.02 57.6358C82.0027 57.5841 81.9163 57.4292 81.4149 57.1708ZM79.2364 53.5546C78.7177 53.5546 77.4729 54.4845 76.6257 55.2422C76.9197 55.1216 77.2654 54.9667 77.6112 54.7945C78.1126 54.5534 78.5103 54.3467 78.8042 54.1401C79.271 53.8473 79.3747 53.6924 79.3747 53.6235C79.3747 53.5718 79.3229 53.5546 79.2364 53.5546ZM81.5878 53.2963C81.242 53.2963 80.585 53.8473 79.9626 54.4673C79.686 54.7428 79.4266 55.0355 79.1846 55.3111C79.4612 55.1389 79.7897 54.9494 80.1182 54.7256C80.5677 54.4328 80.9481 54.1573 81.2074 53.9334C81.6397 53.5718 81.7088 53.4168 81.7088 53.3652C81.7088 53.3135 81.6569 53.2963 81.5878 53.2963ZM85.7372 54.5878C85.7372 54.4845 85.5816 54.4673 85.4606 54.4673C85.2704 54.4673 85.0111 54.5189 84.648 54.6739L84.0947 54.9494C83.7835 55.1044 83.4377 55.2938 83.0055 55.4488C83.6452 55.3627 84.2849 55.2422 84.8901 55.0872C85.5125 54.9322 85.7372 54.6911 85.7372 54.5878Z" fill="#4E5D3E"/>
<path fill-rule="evenodd" clip-rule="evenodd" d="M54.0583 54.2951C54.3176 54.1057 54.8363 54.1401 55.4414 54.3984C55.6316 54.4845 55.8045 54.5878 56.012 54.6911C56.5307 54.9494 57.1358 55.2766 58.0867 55.4833C57.8446 55.3455 57.5853 55.1905 57.3087 55.0011C56.8419 54.7084 56.4615 54.4328 56.1849 54.1918C55.8045 53.8646 55.6143 53.6235 55.5797 53.4341C55.5452 53.1585 55.8045 53.0208 56.0293 53.0208C56.3751 53.0552 56.9283 53.4168 57.6372 54.0884C58.1904 54.6395 58.7264 55.2422 59.0203 55.6383C59.66 55.6727 60.2652 55.6899 60.8357 55.6727C60.5418 55.5005 60.1268 55.2594 59.6946 54.9839C59.2278 54.6739 58.8474 54.3984 58.5708 54.1573C58.1904 53.8473 57.983 53.6063 57.9657 53.3996C57.9138 53.1413 58.1731 52.9863 58.3979 53.0036C58.761 53.0208 59.297 53.3824 60.0058 54.054C60.5937 54.6223 61.1469 55.2766 61.4408 55.6727L62.4436 55.621C62.703 55.6038 62.9969 55.5866 63.3081 55.5521C62.9969 55.4316 62.6165 55.2422 62.2361 55.0528C61.7175 54.8117 61.3198 54.5878 61.0086 54.3984C60.5937 54.1229 60.3689 53.899 60.317 53.7096C60.2306 53.4513 60.4726 53.2619 60.6974 53.2619C61.0605 53.2446 61.631 53.5202 62.4263 54.1057C63.066 54.5878 63.6712 55.1389 64.0169 55.4833C64.8123 55.4144 65.5211 55.2766 66.23 55.1389C65.8842 55.0355 65.3828 54.8806 64.8814 54.6911C64.3627 54.5017 63.9132 54.3295 63.602 54.1573C63.1525 53.9334 62.9104 53.744 62.824 53.5546C62.7375 53.2963 62.945 53.1069 63.1698 53.0724C63.5156 53.0036 64.1207 53.2274 64.9851 53.7268C65.694 54.1401 66.3856 54.6567 66.8178 55.0183C67.1982 54.9322 67.5958 54.8633 68.0108 54.76C68.201 54.7256 68.2701 55.0183 68.0972 55.0528C67.6996 55.1561 67.2155 55.2766 66.6622 55.3799C66.4029 55.7932 65.8669 56.4648 65.3136 57.0503C64.6394 57.7563 64.1034 58.1868 63.6884 58.1868C63.4464 58.1868 63.2908 58.0146 63.2908 57.808C63.3081 57.5841 63.5156 57.1881 64.9506 56.1549L65.8496 55.5349C65.815 55.5349 65.7805 55.5521 65.7459 55.5521C65.2272 55.6383 64.5356 55.7416 63.9997 55.8105C63.6884 56.1032 62.9796 56.9814 62.4955 57.4119C61.7866 58.0835 61.2334 58.4451 60.8703 58.4451C60.6109 58.4451 60.4035 58.2729 60.438 58.0319C60.4726 57.8252 60.6974 57.4292 62.2016 56.4993C62.5646 56.2582 62.9277 56.0515 63.2216 55.8793C62.6165 55.9482 62.0632 55.9999 61.5446 56.0171C61.1815 56.3443 60.5072 56.8609 59.8156 57.3086C59.0376 57.7908 58.4671 58.0319 58.104 58.0319C57.8446 58.0319 57.5507 57.7908 57.6718 57.5325C57.7409 57.3431 58.0348 56.9986 59.6773 56.3443C59.9712 56.2237 60.2652 56.1204 60.5245 56.0343C60.0231 56.0343 59.5909 55.9999 59.1932 55.9654C58.5535 56.3443 57.8101 56.6198 57.1012 56.8609C56.4442 57.0675 55.9255 57.1708 55.5625 57.1708C55.1994 57.1708 54.7499 56.947 54.9573 56.5681C55.0783 56.3787 55.4587 56.1204 57.2222 55.8966L57.689 55.8277C56.79 55.7416 55.8909 55.5866 55.0092 55.3627C54.4041 55.225 53.9891 54.9494 53.9373 54.6567C53.92 54.5189 53.9545 54.3812 54.0583 54.2951ZM63.2908 53.348C63.1352 53.348 63.1006 53.3996 63.1006 53.4513C63.1006 53.5029 63.2216 53.6407 63.723 53.899C64.0515 54.054 64.4665 54.2262 64.9851 54.4156C65.3482 54.5534 65.7113 54.6739 66.0225 54.76C65.1235 54.1057 63.8441 53.348 63.2908 53.348ZM55.9947 53.3135C55.9255 53.3135 55.8737 53.3307 55.8737 53.3824C55.8737 53.4513 55.9428 53.6063 56.3751 53.9679C56.6517 54.1918 57.0148 54.4673 57.4816 54.76C57.8101 54.9667 58.1213 55.1733 58.3979 55.3283C57.6545 54.4501 56.4096 53.3135 55.9947 53.3135ZM61.2506 57.5153C60.8184 57.8769 60.7493 58.0319 60.732 58.0835C60.7493 58.1352 60.7838 58.1696 60.8703 58.1524C61.3717 58.1007 62.5301 57.0503 63.2908 56.1893C63.0142 56.3443 62.6857 56.5337 62.3572 56.7403C61.8904 57.0331 61.51 57.2914 61.2506 57.5153ZM55.9082 56.4132C55.3723 56.5509 55.2685 56.6198 55.234 56.6887C55.1994 56.7403 55.234 56.8092 55.3031 56.8437C55.7699 57.0331 57.2741 56.5337 58.3287 56.0688C58.0175 56.1032 57.6372 56.1376 57.2568 56.1893C56.7035 56.2582 56.254 56.3271 55.9082 56.4132ZM64.0688 57.2397C63.6539 57.6186 63.5847 57.7736 63.5847 57.8424C63.5847 57.8941 63.7057 57.8941 63.723 57.8941C64.2244 57.8424 65.3136 56.6887 66.0225 55.776C65.7632 55.9482 65.452 56.1549 65.1235 56.3959C64.6739 56.7059 64.3282 56.9986 64.0688 57.2397ZM58.5535 57.1708C58.0521 57.4292 57.9657 57.5841 57.9484 57.6358C57.9311 57.6875 58.0175 57.7219 58.0521 57.7219C58.5535 57.7908 59.9021 56.947 60.8184 56.241C60.5072 56.3443 60.1614 56.482 59.7983 56.6198C59.2797 56.8092 58.8647 56.9986 58.5535 57.1708ZM60.732 53.5546C60.6455 53.5546 60.5937 53.5718 60.5937 53.6235C60.5937 53.6924 60.6974 53.8473 61.1642 54.1401C61.4581 54.3467 61.8558 54.5534 62.3572 54.7945C62.703 54.9667 63.0487 55.1216 63.3427 55.2422C62.4955 54.4845 61.2506 53.5546 60.732 53.5546ZM58.3806 53.2963C58.3115 53.2963 58.2596 53.3135 58.2596 53.3652C58.2596 53.4168 58.3287 53.5718 58.761 53.9334C59.0203 54.1573 59.4007 54.4328 59.8502 54.7256C60.1787 54.9494 60.5072 55.1389 60.7838 55.3111C60.5418 55.0355 60.2824 54.7428 60.0058 54.4673C59.3834 53.8473 58.7264 53.2963 58.3806 53.2963ZM54.2312 54.5878C54.2312 54.6911 54.4559 54.9322 55.0783 55.0872C55.6835 55.2422 56.3232 55.3627 56.9629 55.4488C56.5307 55.2938 56.1849 55.1044 55.8737 54.9494L55.3204 54.6739C54.9573 54.5189 54.698 54.4673 54.5078 54.4673C54.3868 54.4673 54.2312 54.4845 54.2312 54.5878Z" fill="#4E5D3E"/>
</svg>
